<?xml version="1.0" encoding="UTF-8" standalone="no"?>
<!-- Created with Inkscape (http://www.inkscape.org/) -->

<svg
   xmlns:dc="http://purl.org/dc/elements/1.1/"
   xmlns:cc="http://creativecommons.org/ns#"
   xmlns:rdf="http://www.w3.org/1999/02/22-rdf-syntax-ns#"
   xmlns:svg="http://www.w3.org/2000/svg"
   xmlns="http://www.w3.org/2000/svg"
   xmlns:sodipodi="http://sodipodi.sourceforge.net/DTD/sodipodi-0.dtd"
   xmlns:inkscape="http://www.inkscape.org/namespaces/inkscape"
   width="512"
   height="512"
   id="svg3197"
   version="1.1"
   inkscape:version="0.48.3.1 r9886">
  <defs
     id="defs3199" />
  <sodipodi:namedview
     id="base"
     pagecolor="#ffffff"
     bordercolor="#666666"
     borderopacity="1.0"
     inkscape:pageopacity="0.0"
     inkscape:pageshadow="2"
     inkscape:zoom="0.40720635"
     inkscape:cx="130.89315"
     inkscape:cy="-14.596902"
     inkscape:document-units="px"
     inkscape:current-layer="layer1"
     showgrid="false"
     inkscape:window-width="1368"
     inkscape:window-height="721"
     inkscape:window-x="-2"
     inkscape:window-y="-3"
     inkscape:window-maximized="1" />
  <metadata
     id="metadata3202">
    <rdf:RDF>
      <cc:Work
         rdf:about="">
        <dc:format>image/svg+xml</dc:format>
        <dc:type
           rdf:resource="http://purl.org/dc/dcmitype/StillImage" />
        <dc:title></dc:title>
      </cc:Work>
    </rdf:RDF>
  </metadata>
  <g
     inkscape:label="Capa 1"
     inkscape:groupmode="layer"
     id="layer1"
     transform="translate(0,-540.36218)">
    <path
       style="fill:#006680"
       d="m 246.93442,540.49547 c -5.14202,0.14945 -9.98509,0.54671 -14.37033,1.1215 -72.27682,9.4781 -133.006361,48.35374 -159.207959,102.05722 -16.322682,33.45539 -19.416514,97.9718 -6.428839,131.59021 19.047614,49.30431 77.633778,95.83557 142.568658,113.08537 62.03198,16.47865 86.93558,11.16047 83.57474,-17.94412 -1.87769,-16.26 -4.15716,-17.64321 -37.06027,-21.68247 -92.88739,-11.40315 -166.035606,-76.33397 -150.13201,-133.2725 8.94108,-32.01106 31.43438,-57.88612 68.06992,-77.94479 28.51863,-15.61449 38.44372,-17.66119 80.92759,-17.57027 52.86835,0.11308 83.21385,11.30198 111.36992,41.12195 8.06784,8.54456 17.19852,15.51418 20.2319,15.51418 9.819,0 70.83234,-44.54485 70.90615,-51.77627 0.12587,-12.32906 -49.20723,-49.34425 -82.06205,-61.49601 -39.8583,-14.74212 -92.39308,-23.85271 -128.38742,-22.804 z m 0,16.6357 c 65.30362,-1.61066 141.6225,18.68306 179.06169,53.64546 l 13.80306,12.89735 -25.14806,17.94412 -24.95896,18.13104 -16.07206,-14.76652 c -33.03332,-30.52265 -53.93012,-37.19667 -118.74417,-37.19667 -56.49745,0 -62.71167,1.35705 -93.78524,18.6918 -83.24901,46.44147 -95.746179,138.74305 -25.90437,191.40396 28.18293,21.25002 83.96128,43.9308 108.53371,44.11263 22.75198,0.16868 38.38386,5.31027 38.38386,12.71042 0,8.06506 -47.7676,5.57591 -79.60401,-4.11218 C 145.2109,853.15914 81.521245,791.24694 72.59979,744.23605 59.839811,676.99841 97.770232,610.24722 169.41034,573.57995 c 20.44154,-10.46249 47.84062,-15.71667 77.52408,-16.44878 z m 216.68922,113.4592 c -32.09495,0 -48.40528,16.03763 -48.40528,47.47718 0,18.25383 3.4948,26.25531 15.883,35.88823 8.76841,6.81829 23.43625,12.3366 32.52228,12.3366 27.45782,0 48.40527,-20.83518 48.40527,-48.22483 0,-31.43955 -16.31035,-47.47718 -48.40527,-47.47718 z m 1.70175,12.5235 c 9.14774,0.12745 18.14512,3.43745 24.5808,10.46741 13.13718,14.35017 12.62609,32.54975 -1.1345,44.86033 -22.77177,20.37218 -61.45201,5.341 -61.45201,-23.92551 0,-17.48738 16.6545,-29.77833 34.03496,-31.2153 1.30355,-0.10775 2.66392,-0.20507 3.97075,-0.18723 z M 253.17417,695.6374 c -12.51604,0.07 -22.49178,2.79473 -28.1734,8.41129 -19.80715,19.58034 -6.49769,33.18509 38.38389,39.25278 79.76624,10.78375 145.66114,63.12609 145.59396,115.51526 -0.0605,46.52895 -40.88108,90.89794 -99.26862,108.03858 -58.5443,17.18671 -119.56038,5.61598 -156.56082,-29.90686 -12.02665,-11.54644 -24.02867,-21.12174 -26.66071,-21.12174 -9.9543,0 -68.258992,43.78074 -68.258992,51.21553 0,13.58358 47.816672,48.79166 84.709232,62.43066 19.57762,7.2377 50.05285,15.4039 67.69174,17.9441 46.65194,6.7185 47.74584,6.7282 86.97824,-0.3739 100.26904,-18.1512 167.47177,-98.39483 158.07345,-188.41327 -3.85929,-36.96472 -15.18727,-60.4619 -45.00177,-93.08513 -35.11572,-38.42382 -112.80606,-70.15788 -157.5062,-69.9073 z m -0.37816,17.38336 c 4.50211,0.0795 9.93184,0.384 16.07206,0.93458 61.12067,5.47876 125.27954,46.11341 156.56079,98.87958 41.30178,69.66919 4.16617,160.4389 -84.14198,205.60978 -29.13857,14.9048 -111.40293,20.8691 -150.88833,11.0282 -44.00758,-10.968 -123.447841,-53.6847 -114.017103,-61.30915 1.6142,-1.30508 13.276058,-9.9606 25.904393,-19.25256 l 22.87906,-16.8226 19.47556,18.50487 c 39.42541,37.77508 123.11193,48.8408 187.9486,24.86009 39.30031,-14.5357 78.58153,-53.3583 88.11271,-87.29068 7.93362,-28.24525 7.90331,-29.85587 0.37818,-56.63615 C 408.09994,785.334 346.02177,742.65278 273.78423,730.21722 229.64411,722.61853 221.28129,712.46311 252.79601,713.02076 z M 50.855232,831.33979 c -20.216878,-0.73241 -39.692228,11.13756 -47.0816581,33.27141 -5.57077,16.68641 -5.06634,23.9343 2.45809,38.31818 5.1125601,9.77351 12.7876401,19.25244 17.0174701,20.93482 54.064853,21.50375 102.089346,-37.77281 62.3974,-77.01021 -10.210683,-10.09381 -22.661182,-15.07475 -34.791302,-15.5142 z m -0.189396,16.07495 c 12.24071,-0.63564 24.211344,6.79366 31.765962,20.74789 7.596178,14.03105 -0.260794,32.31721 -17.962901,41.68271 -16.481324,8.71959 -22.792233,7.56256 -36.493023,-5.98138 -19.4026901,-19.18053 -15.32292,-39.59549 10.58865,-53.08469 3.98751,-2.07583 8.021051,-3.1526 12.101312,-3.36453 z"
       id="path3159"
       inkscape:connector-curvature="0" />
  </g>
</svg>
