<?xml version="1.0" encoding="UTF-8" standalone="no"?>
<!-- Created with Inkscape (http://www.inkscape.org/) -->

<svg
   xmlns:dc="http://purl.org/dc/elements/1.1/"
   xmlns:cc="http://creativecommons.org/ns#"
   xmlns:rdf="http://www.w3.org/1999/02/22-rdf-syntax-ns#"
   xmlns:svg="http://www.w3.org/2000/svg"
   xmlns="http://www.w3.org/2000/svg"
   xmlns:sodipodi="http://sodipodi.sourceforge.net/DTD/sodipodi-0.dtd"
   xmlns:inkscape="http://www.inkscape.org/namespaces/inkscape"
   width="512"
   height="512"
   id="svg3197"
   version="1.1"
   inkscape:version="0.48.3.1 r9886"
   sodipodi:docname="logo.svg">
  <defs
     id="defs3199" />
  <sodipodi:namedview
     id="base"
     pagecolor="#ffffff"
     bordercolor="#666666"
     borderopacity="1.0"
     inkscape:pageopacity="0.0"
     inkscape:pageshadow="2"
     inkscape:zoom="0.40720635"
     inkscape:cx="130.89315"
     inkscape:cy="-14.596902"
     inkscape:document-units="px"
     inkscape:current-layer="layer1"
     showgrid="false"
     inkscape:window-width="1368"
     inkscape:window-height="711"
     inkscape:window-x="-2"
     inkscape:window-y="-3"
     inkscape:window-maximized="1" />
  <metadata
     id="metadata3202">
    <rdf:RDF>
      <cc:Work
         rdf:about="">
        <dc:format>image/svg+xml</dc:format>
        <dc:type
           rdf:resource="http://purl.org/dc/dcmitype/StillImage" />
        <dc:title />
      </cc:Work>
    </rdf:RDF>
  </metadata>
  <g
     inkscape:label="Capa 1"
     inkscape:groupmode="layer"
     id="layer1"
     transform="translate(0,-540.36218)">
    <path
       style="fill:#000000"
       d="m 246.93442,540.49547 c -5.14202,0.14945 -9.98509,0.54671 -14.37033,1.1215 -72.27682,9.4781 -133.006361,48.35374 -159.207959,102.05722 -16.322682,33.45539 -19.416514,97.9718 -6.428839,131.59021 19.047614,49.30431 77.633778,95.83557 142.568658,113.08537 62.03198,16.47865 86.93558,11.16047 83.57474,-17.94412 -1.87769,-16.26 -4.15716,-17.64321 -37.06027,-21.68247 -92.88739,-11.40315 -166.035606,-76.33397 -150.13201,-133.2725 8.94108,-32.01106 31.43438,-57.88612 68.06992,-77.94479 28.51863,-15.61449 38.44372,-17.66119 80.92759,-17.57027 52.86835,0.11308 83.21385,11.30198 111.36992,41.12195 8.06784,8.54456 17.19852,15.51418 20.2319,15.51418 9.819,0 70.83234,-44.54485 70.90615,-51.77627 0.12587,-12.32906 -49.20723,-49.34425 -82.06205,-61.49601 -39.8583,-14.74212 -92.39308,-23.85271 -128.38742,-22.804 z m 0,16.6357 c 65.30362,-1.61066 141.6225,18.68306 179.06169,53.64546 l 13.80306,12.89735 -25.14806,17.94412 -24.95896,18.13104 -16.07206,-14.76652 c -33.03332,-30.52265 -53.93012,-37.19667 -118.74417,-37.19667 -56.49745,0 -62.71167,1.35705 -93.78524,18.6918 -83.24901,46.44147 -95.746179,138.74305 -25.90437,191.40396 28.18293,21.25002 83.96128,43.9308 108.53371,44.11263 22.75198,0.16868 38.38386,5.31027 38.38386,12.71042 0,8.06506 -47.7676,5.57591 -79.60401,-4.11218 C 145.2109,853.15914 81.521245,791.24694 72.59979,744.23605 59.839811,676.99841 97.770232,610.24722 169.41034,573.57995 c 20.44154,-10.46249 47.84062,-15.71667 77.52408,-16.44878 z m 216.68922,113.4592 c -32.09495,0 -48.40528,16.03763 -48.40528,47.47718 0,18.25383 3.4948,26.25531 15.883,35.88823 8.76841,6.81829 23.43625,12.3366 32.52228,12.3366 27.45782,0 48.40527,-20.83518 48.40527,-48.22483 0,-31.43955 -16.31035,-47.47718 -48.40527,-47.47718 z m 1.70175,12.5235 c 9.14774,0.12745 18.14512,3.43745 24.5808,10.46741 13.13718,14.35017 12.62609,32.54975 -1.1345,44.86033 -22.77177,20.37218 -61.45201,5.341 -61.45201,-23.92551 0,-17.48738 16.6545,-29.77833 34.03496,-31.2153 1.30355,-0.10775 2.66392,-0.20507 3.97075,-0.18723 z M 253.17417,695.6374 c -12.51604,0.07 -22.49178,2.79473 -28.1734,8.41129 -19.80715,19.58034 -6.49769,33.18509 38.38389,39.25278 79.76624,10.78375 145.66114,63.12609 145.59396,115.51526 -0.0605,46.52895 -40.88108,90.89794 -99.26862,108.03858 -58.5443,17.18671 -119.56038,5.61598 -156.56082,-29.90686 -12.02665,-11.54644 -24.02867,-21.12174 -26.66071,-21.12174 -9.9543,0 -68.258992,43.78074 -68.258992,51.21553 0,13.58358 47.816672,48.79166 84.709232,62.43066 19.57762,7.2377 50.05285,15.4039 67.69174,17.9441 46.65194,6.7185 47.74584,6.7282 86.97824,-0.3739 100.26904,-18.1512 167.47177,-98.39483 158.07345,-188.41327 -3.85929,-36.96472 -15.18727,-60.4619 -45.00177,-93.08513 -35.11572,-38.42382 -112.80606,-70.15788 -157.5062,-69.9073 z m -0.37816,17.38336 c 4.50211,0.0795 9.93184,0.384 16.07206,0.93458 61.12067,5.47876 125.27954,46.11341 156.56079,98.87958 41.30178,69.66919 4.16617,160.4389 -84.14198,205.60978 -29.13857,14.9048 -111.40293,20.8691 -150.88833,11.0282 -44.00758,-10.968 -123.447841,-53.6847 -114.017103,-61.30915 1.6142,-1.30508 13.276058,-9.9606 25.904393,-19.25256 l 22.87906,-16.8226 19.47556,18.50487 c 39.42541,37.77508 123.11193,48.8408 187.9486,24.86009 39.30031,-14.5357 78.58153,-53.3583 88.11271,-87.29068 7.93362,-28.24525 7.90331,-29.85587 0.37818,-56.63615 C 408.09994,785.334 346.02177,742.65278 273.78423,730.21722 229.64411,722.61853 221.28129,712.46311 252.79601,713.02076 z M 50.855232,831.33979 c -20.216878,-0.73241 -39.692228,11.13756 -47.0816581,33.27141 -5.57077,16.68641 -5.06634,23.9343 2.45809,38.31818 5.1125601,9.77351 12.7876401,19.25244 17.0174701,20.93482 54.064853,21.50375 102.089346,-37.77281 62.3974,-77.01021 -10.210683,-10.09381 -22.661182,-15.07475 -34.791302,-15.5142 z m -0.189396,16.07495 c 12.24071,-0.63564 24.211344,6.79366 31.765962,20.74789 7.596178,14.03105 -0.260794,32.31721 -17.962901,41.68271 -16.481324,8.71959 -22.792233,7.56256 -36.493023,-5.98138 -19.4026901,-19.18053 -15.32292,-39.59549 10.58865,-53.08469 3.98751,-2.07583 8.021051,-3.1526 12.101312,-3.36453 z"
       id="path3159"
       inkscape:connector-curvature="0" />
    <path
       style="fill:#000000;fill-opacity:1;stroke:#000000;stroke-width:6.13939333;stroke-linecap:square;stroke-miterlimit:4;stroke-opacity:1;stroke-dasharray:none;stroke-dashoffset:0"
       d="m 193.97018,488.50938 c -14.24713,-3.096 -50.6436,-17.43096 -73.14564,-28.80886 -16.1052,-8.14341 -42.975749,-26.13959 -42.975749,-28.78243 0,-1.35251 10.473052,-10.33115 23.273449,-19.95255 l 23.27345,-17.49343 15.38625,13.92376 c 17.08782,15.4636 41.55695,28.51043 65.76623,35.06629 22.96039,6.21766 83.04847,6.07564 106.82545,-0.2525 51.54048,-13.71727 96.35061,-52.72834 109.65018,-95.45995 21.68154,-69.66298 -37.43905,-133.20154 -146.75797,-157.72482 -15.74544,-3.53214 -31.38957,-7.86897 -34.76474,-9.6374 l -6.13666,-3.21532 9.24715,-1.50061 c 11.23172,-1.82265 40.45997,1.65823 59.60372,7.0984 56.67502,16.10561 113.87216,65.64426 131.30654,113.72507 7.52992,20.76613 7.36415,54.89152 -0.3815,78.53968 -14.37215,43.87943 -61.91353,92.57452 -104.43335,106.96777 -31.0535,10.51179 -103.47701,14.51716 -135.73681,7.5069 z"
       id="path2983"
       inkscape:connector-curvature="0"
       transform="translate(0,540.36218)" />
    <path
       style="fill:#000000;fill-opacity:1;stroke:#000000;stroke-width:6.13939333;stroke-linecap:square;stroke-miterlimit:4;stroke-opacity:1;stroke-dasharray:none;stroke-dashoffset:0"
       d="m 35.966388,368.1013 c -12.050925,-8.89089 -20.024903,-22.69586 -18.331671,-31.73675 1.529187,-8.16499 11.411358,-19.64007 21.413942,-24.86566 13.204625,-6.89842 27.267485,-2.72113 38.374259,11.39884 12.125395,15.41495 4.805065,35.52677 -16.975509,46.63838 -12.138534,6.19262 -14.315562,6.06503 -24.481021,-1.43481 z"
       id="path2985"
       inkscape:connector-curvature="0"
       transform="translate(0,540.36218)" />
    <path
       style="fill:#000000;fill-opacity:1;stroke:#000000;stroke-width:6.13939333;stroke-linecap:square;stroke-miterlimit:4;stroke-opacity:1;stroke-dasharray:none;stroke-dashoffset:0"
       d="M 233.78938,335.74882 C 193.15778,330.12971 152.90075,308.90565 119.47669,275.48159 85.639811,241.64471 72.536598,214.80052 72.434331,179.10723 72.314775,137.37984 86.61177,104.99625 119.59658,72.281786 156.98631,35.198499 188.80806,21.392328 242.38454,19.009068 c 38.67605,-1.72044 77.10977,3.544635 112.96483,15.47517 33.69462,11.211656 50.03181,20.244973 72.85393,40.283067 l 9.13792,8.023183 -7.22926,5.793151 c -3.97609,3.186232 -14.60581,10.890842 -23.62159,17.121361 l -16.39232,11.3282 -17.98828,-15.22031 C 337.36265,72.412509 320.09361,67.462222 252.20756,67.442058 c -30.85638,-0.0092 -49.51042,1.072506 -58.14571,3.371625 -35.66663,9.496136 -78.58798,43.908317 -93.72104,75.140827 -27.717659,57.20535 -3.462139,115.26146 62.23161,148.95268 32.76485,16.80355 58.61952,25.29018 85.52834,28.07415 23.02413,2.38204 37.41965,8.12423 30.83009,12.29772 -3.36967,2.13418 -31.0252,2.42197 -45.14147,0.46976 l 0,0 z"
       id="path2987"
       inkscape:connector-curvature="0"
       transform="translate(0,540.36218)" />
    <path
       style="fill:#000000;fill-opacity:1;stroke:#000000;stroke-width:6.13939333;stroke-linecap:square;stroke-miterlimit:4;stroke-opacity:1;stroke-dasharray:none;stroke-dashoffset:0"
       d="m 444.87942,200.31753 c -10.22757,-6.23697 -15.85732,-15.61519 -15.85732,-26.41565 0,-12.64654 14.865,-26.92947 30.461,-29.26823 19.873,-2.98014 38.3002,12.70315 38.3002,32.59708 0,7.05977 -1.94155,10.62333 -9.92643,18.21917 -8.91225,8.47802 -11.23312,9.44185 -22.71576,9.43361 -8.12179,-0.006 -15.5164,-1.67221 -20.26169,-4.56598 l 0,0 z"
       id="path2989"
       inkscape:connector-curvature="0"
       transform="translate(0,540.36218)" />
  </g>
</svg>
